<mxfile host="app.diagrams.net" modified="2023-06-09T02:34:03.369Z" agent="5.0 (Macintosh; Intel Mac OS X 10_15_7) AppleWebKit/537.36 (KHTML, like Gecko) Chrome/114.0.0.0 Safari/537.36" etag="ZhuFs89AC7D2JN3QFVfx" version="20.1.4" type="github">
  <diagram name="Page-1" id="74e2e168-ea6b-b213-b513-2b3c1d86103e">
    <mxGraphModel dx="2593" dy="1398" grid="1" gridSize="10" guides="1" tooltips="1" connect="1" arrows="1" fold="1" page="1" pageScale="1" pageWidth="1100" pageHeight="850" background="none" math="0" shadow="0">
      <root>
        <mxCell id="0" />
        <mxCell id="1" parent="0" />
        <mxCell id="77e6c97f196da883-1" value="&lt;font style=&quot;font-size: 20px;&quot;&gt;合规周-云端运动会 业务流程图&lt;/font&gt;" style="swimlane;html=1;childLayout=stackLayout;startSize=20;rounded=0;shadow=0;labelBackgroundColor=none;strokeWidth=1;fontFamily=Verdana;fontSize=12;align=center;spacingTop=0;spacingBottom=0;" parent="1" vertex="1">
          <mxGeometry x="250" y="30" width="1440" height="570" as="geometry" />
        </mxCell>
        <mxCell id="77e6c97f196da883-2" value="员工" style="swimlane;html=1;startSize=20;" parent="77e6c97f196da883-1" vertex="1">
          <mxGeometry y="20" width="160" height="550" as="geometry" />
        </mxCell>
        <mxCell id="77e6c97f196da883-8" value="员工登陆页&amp;nbsp;" style="rounded=1;whiteSpace=wrap;html=1;shadow=0;labelBackgroundColor=none;strokeWidth=1;fontFamily=Verdana;fontSize=8;align=center;" parent="77e6c97f196da883-2" vertex="1">
          <mxGeometry x="20" y="65" width="100" height="60" as="geometry" />
        </mxCell>
        <mxCell id="77e6c97f196da883-9" value="不存在" style="rounded=1;whiteSpace=wrap;html=1;shadow=0;labelBackgroundColor=none;strokeWidth=1;fontFamily=Verdana;fontSize=8;align=center;" parent="77e6c97f196da883-2" vertex="1">
          <mxGeometry x="20" y="210" width="100" height="60" as="geometry" />
        </mxCell>
        <mxCell id="77e6c97f196da883-26" style="edgeStyle=orthogonalEdgeStyle;rounded=1;html=1;labelBackgroundColor=none;startArrow=none;startFill=0;startSize=5;endArrow=classicThin;endFill=1;endSize=5;jettySize=auto;orthogonalLoop=1;strokeWidth=1;fontFamily=Verdana;fontSize=8;entryX=0;entryY=0.5;entryDx=0;entryDy=0;" parent="77e6c97f196da883-1" source="77e6c97f196da883-8" target="UxCtLY3O70EbzMwxIDTh-2" edge="1">
          <mxGeometry relative="1" as="geometry">
            <mxPoint x="190" y="115" as="targetPoint" />
          </mxGeometry>
        </mxCell>
        <mxCell id="77e6c97f196da883-3" value="验证" style="swimlane;html=1;startSize=20;" parent="77e6c97f196da883-1" vertex="1">
          <mxGeometry x="160" y="20" width="160" height="550" as="geometry" />
        </mxCell>
        <mxCell id="UxCtLY3O70EbzMwxIDTh-2" value="&lt;span style=&quot;font-size: 12px; font-weight: 700;&quot;&gt;白名单&lt;/span&gt;" style="rhombus;whiteSpace=wrap;html=1;fontSize=8;" vertex="1" parent="77e6c97f196da883-3">
          <mxGeometry x="25" y="55" width="110" height="80" as="geometry" />
        </mxCell>
        <mxCell id="77e6c97f196da883-4" value="运动会系统" style="swimlane;html=1;startSize=20;" parent="77e6c97f196da883-1" vertex="1">
          <mxGeometry x="320" y="20" width="160" height="550" as="geometry" />
        </mxCell>
        <mxCell id="77e6c97f196da883-13" value="时间" style="rhombus;whiteSpace=wrap;html=1;rounded=0;shadow=0;labelBackgroundColor=none;strokeWidth=1;fontFamily=Verdana;fontSize=8;align=center;" parent="77e6c97f196da883-4" vertex="1">
          <mxGeometry x="40" y="200" width="80" height="60" as="geometry" />
        </mxCell>
        <mxCell id="UxCtLY3O70EbzMwxIDTh-17" style="edgeStyle=orthogonalEdgeStyle;rounded=0;orthogonalLoop=1;jettySize=auto;html=1;exitX=0.5;exitY=1;exitDx=0;exitDy=0;entryX=0.5;entryY=0;entryDx=0;entryDy=0;fontSize=8;" edge="1" parent="77e6c97f196da883-4" source="UxCtLY3O70EbzMwxIDTh-8" target="77e6c97f196da883-13">
          <mxGeometry relative="1" as="geometry" />
        </mxCell>
        <mxCell id="UxCtLY3O70EbzMwxIDTh-8" value="合规主页" style="rounded=1;whiteSpace=wrap;html=1;shadow=0;labelBackgroundColor=none;strokeWidth=1;fontFamily=Verdana;fontSize=8;align=center;" vertex="1" parent="77e6c97f196da883-4">
          <mxGeometry x="30" y="65" width="100" height="60" as="geometry" />
        </mxCell>
        <mxCell id="77e6c97f196da883-5" value="个人赛" style="swimlane;html=1;startSize=20;" parent="77e6c97f196da883-1" vertex="1">
          <mxGeometry x="480" y="20" width="160" height="550" as="geometry" />
        </mxCell>
        <mxCell id="UxCtLY3O70EbzMwxIDTh-125" style="edgeStyle=orthogonalEdgeStyle;rounded=0;orthogonalLoop=1;jettySize=auto;html=1;exitX=0.5;exitY=1;exitDx=0;exitDy=0;entryX=0.5;entryY=0;entryDx=0;entryDy=0;fontSize=8;" edge="1" parent="77e6c97f196da883-5" source="77e6c97f196da883-12" target="UxCtLY3O70EbzMwxIDTh-124">
          <mxGeometry relative="1" as="geometry" />
        </mxCell>
        <mxCell id="77e6c97f196da883-12" value="开放时间&lt;br&gt;6.26-6.29" style="rounded=1;whiteSpace=wrap;html=1;shadow=0;labelBackgroundColor=none;strokeWidth=1;fontFamily=Verdana;fontSize=8;align=center;" parent="77e6c97f196da883-5" vertex="1">
          <mxGeometry x="30" y="107" width="100" height="60" as="geometry" />
        </mxCell>
        <mxCell id="UxCtLY3O70EbzMwxIDTh-124" value="项目" style="rounded=1;whiteSpace=wrap;html=1;shadow=0;labelBackgroundColor=none;strokeWidth=1;fontFamily=Verdana;fontSize=8;align=center;" vertex="1" parent="77e6c97f196da883-5">
          <mxGeometry x="30" y="187" width="100" height="40" as="geometry" />
        </mxCell>
        <mxCell id="77e6c97f196da883-6" value="团队赛" style="swimlane;html=1;startSize=20;" parent="77e6c97f196da883-1" vertex="1">
          <mxGeometry x="640" y="20" width="160" height="550" as="geometry" />
        </mxCell>
        <mxCell id="UxCtLY3O70EbzMwxIDTh-120" style="edgeStyle=orthogonalEdgeStyle;rounded=0;orthogonalLoop=1;jettySize=auto;html=1;exitX=0.5;exitY=1;exitDx=0;exitDy=0;entryX=0.5;entryY=0;entryDx=0;entryDy=0;fontSize=8;" edge="1" parent="77e6c97f196da883-6" source="UxCtLY3O70EbzMwxIDTh-19" target="UxCtLY3O70EbzMwxIDTh-119">
          <mxGeometry relative="1" as="geometry" />
        </mxCell>
        <mxCell id="UxCtLY3O70EbzMwxIDTh-19" value="开放时间&lt;br&gt;7.2-7.5" style="rounded=1;whiteSpace=wrap;html=1;shadow=0;labelBackgroundColor=none;strokeWidth=1;fontFamily=Verdana;fontSize=8;align=center;" vertex="1" parent="77e6c97f196da883-6">
          <mxGeometry x="30" y="249" width="100" height="60" as="geometry" />
        </mxCell>
        <mxCell id="UxCtLY3O70EbzMwxIDTh-119" value="项目" style="rounded=1;whiteSpace=wrap;html=1;shadow=0;labelBackgroundColor=none;strokeWidth=1;fontFamily=Verdana;fontSize=8;align=center;" vertex="1" parent="77e6c97f196da883-6">
          <mxGeometry x="30" y="345" width="100" height="60" as="geometry" />
        </mxCell>
        <mxCell id="77e6c97f196da883-7" value="答题/项目" style="swimlane;html=1;startSize=20;" parent="77e6c97f196da883-1" vertex="1">
          <mxGeometry x="800" y="20" width="160" height="550" as="geometry" />
        </mxCell>
        <mxCell id="UxCtLY3O70EbzMwxIDTh-101" value="题目类型：&lt;br&gt;单选&lt;br&gt;判断&lt;br&gt;多选" style="rounded=1;whiteSpace=wrap;html=1;shadow=0;labelBackgroundColor=none;strokeWidth=1;fontFamily=Verdana;fontSize=8;align=center;" vertex="1" parent="77e6c97f196da883-7">
          <mxGeometry x="30" y="80" width="100" height="70" as="geometry" />
        </mxCell>
        <mxCell id="UxCtLY3O70EbzMwxIDTh-114" value="个人赛：&lt;br&gt;&lt;br&gt;俄罗斯转体&lt;br&gt;深蹲" style="rounded=1;whiteSpace=wrap;html=1;shadow=0;labelBackgroundColor=none;strokeWidth=1;fontFamily=Verdana;fontSize=8;align=center;" vertex="1" parent="77e6c97f196da883-7">
          <mxGeometry x="30" y="230" width="100" height="70" as="geometry" />
        </mxCell>
        <mxCell id="UxCtLY3O70EbzMwxIDTh-118" value="团队赛&lt;br&gt;&lt;br&gt;高抬腿&lt;br&gt;仰卧起坐&lt;br&gt;平板支撑&lt;br&gt;俯卧撑&lt;br&gt;开合跳" style="rounded=1;whiteSpace=wrap;html=1;shadow=0;labelBackgroundColor=none;strokeWidth=1;fontFamily=Verdana;fontSize=8;align=center;" vertex="1" parent="77e6c97f196da883-7">
          <mxGeometry x="30" y="330" width="100" height="120" as="geometry" />
        </mxCell>
        <mxCell id="UxCtLY3O70EbzMwxIDTh-3" style="edgeStyle=orthogonalEdgeStyle;rounded=0;orthogonalLoop=1;jettySize=auto;html=1;exitX=0.5;exitY=1;exitDx=0;exitDy=0;entryX=0.5;entryY=0;entryDx=0;entryDy=0;fontSize=20;" edge="1" parent="77e6c97f196da883-1" source="UxCtLY3O70EbzMwxIDTh-2" target="77e6c97f196da883-9">
          <mxGeometry relative="1" as="geometry" />
        </mxCell>
        <mxCell id="UxCtLY3O70EbzMwxIDTh-7" value="" style="edgeStyle=orthogonalEdgeStyle;rounded=0;orthogonalLoop=1;jettySize=auto;html=1;fontSize=8;entryX=-0.006;entryY=0.504;entryDx=0;entryDy=0;entryPerimeter=0;" edge="1" parent="77e6c97f196da883-1" source="UxCtLY3O70EbzMwxIDTh-2" target="UxCtLY3O70EbzMwxIDTh-8">
          <mxGeometry relative="1" as="geometry">
            <mxPoint x="340" y="115" as="targetPoint" />
            <Array as="points">
              <mxPoint x="340" y="115" />
            </Array>
          </mxGeometry>
        </mxCell>
        <mxCell id="UxCtLY3O70EbzMwxIDTh-24" style="edgeStyle=orthogonalEdgeStyle;rounded=0;orthogonalLoop=1;jettySize=auto;html=1;entryX=0;entryY=0.5;entryDx=0;entryDy=0;fontSize=8;exitX=0.5;exitY=1;exitDx=0;exitDy=0;" edge="1" parent="77e6c97f196da883-1" source="77e6c97f196da883-13" target="UxCtLY3O70EbzMwxIDTh-19">
          <mxGeometry relative="1" as="geometry">
            <Array as="points">
              <mxPoint x="400" y="300" />
            </Array>
          </mxGeometry>
        </mxCell>
        <mxCell id="UxCtLY3O70EbzMwxIDTh-123" style="edgeStyle=orthogonalEdgeStyle;rounded=0;orthogonalLoop=1;jettySize=auto;html=1;exitX=1;exitY=0.5;exitDx=0;exitDy=0;entryX=0;entryY=0.617;entryDx=0;entryDy=0;entryPerimeter=0;fontSize=8;" edge="1" parent="77e6c97f196da883-1" source="UxCtLY3O70EbzMwxIDTh-119" target="UxCtLY3O70EbzMwxIDTh-118">
          <mxGeometry relative="1" as="geometry">
            <Array as="points">
              <mxPoint x="780" y="395" />
              <mxPoint x="780" y="424" />
            </Array>
          </mxGeometry>
        </mxCell>
        <mxCell id="UxCtLY3O70EbzMwxIDTh-126" style="edgeStyle=orthogonalEdgeStyle;rounded=0;orthogonalLoop=1;jettySize=auto;html=1;exitX=1;exitY=0.5;exitDx=0;exitDy=0;entryX=0;entryY=0.5;entryDx=0;entryDy=0;fontSize=8;" edge="1" parent="77e6c97f196da883-1" source="77e6c97f196da883-13" target="77e6c97f196da883-12">
          <mxGeometry relative="1" as="geometry">
            <Array as="points">
              <mxPoint x="460" y="250" />
              <mxPoint x="460" y="157" />
            </Array>
          </mxGeometry>
        </mxCell>
        <mxCell id="UxCtLY3O70EbzMwxIDTh-127" style="edgeStyle=orthogonalEdgeStyle;rounded=0;orthogonalLoop=1;jettySize=auto;html=1;exitX=1;exitY=0.5;exitDx=0;exitDy=0;entryX=0;entryY=0.5;entryDx=0;entryDy=0;fontSize=8;" edge="1" parent="77e6c97f196da883-1" source="UxCtLY3O70EbzMwxIDTh-124" target="UxCtLY3O70EbzMwxIDTh-114">
          <mxGeometry relative="1" as="geometry">
            <Array as="points">
              <mxPoint x="790" y="227" />
              <mxPoint x="790" y="285" />
            </Array>
          </mxGeometry>
        </mxCell>
        <mxCell id="UxCtLY3O70EbzMwxIDTh-138" style="edgeStyle=orthogonalEdgeStyle;rounded=0;orthogonalLoop=1;jettySize=auto;html=1;exitX=1;exitY=0.5;exitDx=0;exitDy=0;fontSize=8;" edge="1" parent="77e6c97f196da883-1" source="UxCtLY3O70EbzMwxIDTh-124" target="UxCtLY3O70EbzMwxIDTh-101">
          <mxGeometry relative="1" as="geometry">
            <Array as="points">
              <mxPoint x="710" y="227" />
              <mxPoint x="710" y="135" />
            </Array>
          </mxGeometry>
        </mxCell>
        <mxCell id="UxCtLY3O70EbzMwxIDTh-142" value="视频" style="swimlane;html=1;startSize=20;fontStyle=0" vertex="1" parent="77e6c97f196da883-1">
          <mxGeometry x="960" y="20" width="160" height="550" as="geometry" />
        </mxCell>
        <mxCell id="UxCtLY3O70EbzMwxIDTh-144" value="视频采集" style="rounded=1;whiteSpace=wrap;html=1;shadow=0;labelBackgroundColor=none;strokeWidth=1;fontFamily=Verdana;fontSize=8;align=center;" vertex="1" parent="UxCtLY3O70EbzMwxIDTh-142">
          <mxGeometry x="30" y="280" width="100" height="60" as="geometry" />
        </mxCell>
        <mxCell id="UxCtLY3O70EbzMwxIDTh-135" style="edgeStyle=orthogonalEdgeStyle;rounded=0;orthogonalLoop=1;jettySize=auto;html=1;exitX=1;exitY=0.5;exitDx=0;exitDy=0;entryX=0;entryY=0.5;entryDx=0;entryDy=0;fontSize=8;" edge="1" parent="77e6c97f196da883-1" source="UxCtLY3O70EbzMwxIDTh-101" target="UxCtLY3O70EbzMwxIDTh-128">
          <mxGeometry relative="1" as="geometry" />
        </mxCell>
        <mxCell id="UxCtLY3O70EbzMwxIDTh-136" style="edgeStyle=orthogonalEdgeStyle;rounded=0;orthogonalLoop=1;jettySize=auto;html=1;exitX=1;exitY=0.5;exitDx=0;exitDy=0;entryX=0;entryY=0.5;entryDx=0;entryDy=0;fontSize=8;" edge="1" parent="77e6c97f196da883-1" source="UxCtLY3O70EbzMwxIDTh-114" target="UxCtLY3O70EbzMwxIDTh-144">
          <mxGeometry relative="1" as="geometry">
            <Array as="points">
              <mxPoint x="940" y="285" />
              <mxPoint x="940" y="330" />
            </Array>
          </mxGeometry>
        </mxCell>
        <mxCell id="UxCtLY3O70EbzMwxIDTh-137" style="edgeStyle=orthogonalEdgeStyle;rounded=0;orthogonalLoop=1;jettySize=auto;html=1;exitX=1;exitY=0.5;exitDx=0;exitDy=0;entryX=0.5;entryY=1;entryDx=0;entryDy=0;fontSize=8;" edge="1" parent="77e6c97f196da883-1" source="UxCtLY3O70EbzMwxIDTh-118" target="UxCtLY3O70EbzMwxIDTh-144">
          <mxGeometry relative="1" as="geometry" />
        </mxCell>
        <mxCell id="UxCtLY3O70EbzMwxIDTh-12" value="积分" style="swimlane;html=1;startSize=20;" vertex="1" parent="77e6c97f196da883-1">
          <mxGeometry x="1120" y="20" width="160" height="550" as="geometry" />
        </mxCell>
        <mxCell id="UxCtLY3O70EbzMwxIDTh-134" style="edgeStyle=orthogonalEdgeStyle;rounded=0;orthogonalLoop=1;jettySize=auto;html=1;exitX=0.5;exitY=1;exitDx=0;exitDy=0;entryX=0.5;entryY=0;entryDx=0;entryDy=0;fontSize=8;" edge="1" parent="UxCtLY3O70EbzMwxIDTh-12" source="UxCtLY3O70EbzMwxIDTh-128" target="UxCtLY3O70EbzMwxIDTh-129">
          <mxGeometry relative="1" as="geometry" />
        </mxCell>
        <mxCell id="UxCtLY3O70EbzMwxIDTh-128" value="个人积分" style="rounded=1;whiteSpace=wrap;html=1;shadow=0;labelBackgroundColor=none;strokeWidth=1;fontFamily=Verdana;fontSize=8;align=center;" vertex="1" parent="UxCtLY3O70EbzMwxIDTh-12">
          <mxGeometry x="30" y="142.5" width="100" height="60" as="geometry" />
        </mxCell>
        <mxCell id="UxCtLY3O70EbzMwxIDTh-129" value="团队积分" style="rounded=1;whiteSpace=wrap;html=1;shadow=0;labelBackgroundColor=none;strokeWidth=1;fontFamily=Verdana;fontSize=8;align=center;" vertex="1" parent="UxCtLY3O70EbzMwxIDTh-12">
          <mxGeometry x="30" y="257.5" width="100" height="60" as="geometry" />
        </mxCell>
        <mxCell id="UxCtLY3O70EbzMwxIDTh-149" style="edgeStyle=orthogonalEdgeStyle;rounded=0;orthogonalLoop=1;jettySize=auto;html=1;exitX=0.5;exitY=0;exitDx=0;exitDy=0;fontSize=8;entryX=0;entryY=0.5;entryDx=0;entryDy=0;" edge="1" parent="77e6c97f196da883-1" source="UxCtLY3O70EbzMwxIDTh-144" target="UxCtLY3O70EbzMwxIDTh-128">
          <mxGeometry relative="1" as="geometry">
            <mxPoint x="1080" y="200" as="targetPoint" />
          </mxGeometry>
        </mxCell>
        <mxCell id="UxCtLY3O70EbzMwxIDTh-14" value="排名" style="swimlane;html=1;startSize=20;fontStyle=0" vertex="1" parent="1">
          <mxGeometry x="1530" y="50" width="160" height="550" as="geometry" />
        </mxCell>
        <mxCell id="UxCtLY3O70EbzMwxIDTh-141" style="edgeStyle=orthogonalEdgeStyle;rounded=0;orthogonalLoop=1;jettySize=auto;html=1;exitX=0.5;exitY=1;exitDx=0;exitDy=0;entryX=0.5;entryY=0;entryDx=0;entryDy=0;fontSize=8;" edge="1" parent="UxCtLY3O70EbzMwxIDTh-14" source="UxCtLY3O70EbzMwxIDTh-130" target="UxCtLY3O70EbzMwxIDTh-140">
          <mxGeometry relative="1" as="geometry" />
        </mxCell>
        <mxCell id="UxCtLY3O70EbzMwxIDTh-130" value="团队排名" style="rounded=1;whiteSpace=wrap;html=1;shadow=0;labelBackgroundColor=none;strokeWidth=1;fontFamily=Verdana;fontSize=8;align=center;" vertex="1" parent="UxCtLY3O70EbzMwxIDTh-14">
          <mxGeometry x="40" y="200" width="100" height="60" as="geometry" />
        </mxCell>
        <mxCell id="UxCtLY3O70EbzMwxIDTh-140" value="奖品" style="rounded=1;whiteSpace=wrap;html=1;shadow=0;labelBackgroundColor=none;strokeWidth=1;fontFamily=Verdana;fontSize=8;align=center;" vertex="1" parent="UxCtLY3O70EbzMwxIDTh-14">
          <mxGeometry x="40" y="290" width="100" height="60" as="geometry" />
        </mxCell>
        <mxCell id="UxCtLY3O70EbzMwxIDTh-133" style="edgeStyle=orthogonalEdgeStyle;rounded=0;orthogonalLoop=1;jettySize=auto;html=1;exitX=1;exitY=0.5;exitDx=0;exitDy=0;fontSize=8;" edge="1" parent="1" source="UxCtLY3O70EbzMwxIDTh-129" target="UxCtLY3O70EbzMwxIDTh-130">
          <mxGeometry relative="1" as="geometry" />
        </mxCell>
      </root>
    </mxGraphModel>
  </diagram>
</mxfile>
